Coordinates
version=1
nRows=19
nColumns=34
inDegrees=yes

Units are S.I. units (second, meters, Newtons, ...)
Angles are in degrees.

endheader
time	pelvis_tilt	pelvis_list	pelvis_rotation	pelvis_tx	pelvis_ty	pelvis_tz	hip_flexion_r	hip_adduction_r	hip_rotation_r	knee_angle_r	ankle_angle_r	subtalar_angle_r	mtp_angle_r	hip_flexion_l	hip_adduction_l	hip_rotation_l	knee_angle_l	socket_flexion	socket_adduction	socket_rotation	socket_tx	socket_ty	socket_tz	pros_ankle_rx	pros_ankle_ry	pros_ankle_rz	pros_ankle_tx	pros_ankle_ty	pros_ankle_tz	foot_flex	lumbar_extension	lumbar_bending	lumbar_rotation
      0.30000000	     -4.55788076	     -1.64249193	     -3.03847012	     -0.40197717	      1.03799991	      0.35389579	     20.66691083	     -0.77658564	     -4.21907022	    -69.38731987	     -0.31309458	      8.21454590	      8.04728055	     18.68063637	     -0.55567053	     -1.86720372	    -25.55729175	      0.00000000	      0.00000000	      0.00000000	      0.00000000	      0.00000000	      0.00000000	      0.00000000	      0.00000000	      0.00000000	      0.00000000	      0.00000000	      0.00000000	      7.62299027	    -14.63814007	     -6.31946959	      1.77674004
      0.30416667	     -4.42870964	     -1.65506318	     -2.95139413	     -0.39653073	      1.03891204	      0.35371976	     21.08193963	     -0.73591081	     -4.27117043	    -69.30157821	      0.60779689	      8.13850233	      8.07251492	     18.07671943	     -0.51848809	     -1.82385214	    -25.31122866	      0.00000000	      0.00000000	      0.00000000	      0.00000000	      0.00000000	      0.00000000	      0.00000000	      0.00000000	      0.00000000	      0.00000000	      0.00000000	      0.00000000	      7.74213493	    -14.70670810	     -6.25691900	      1.60636849
      0.30833333	     -4.27905620	     -1.65862413	     -2.87426924	     -0.39114006	      1.03982521	      0.35358140	     21.47427503	     -0.70561379	     -4.32255585	    -69.16847365	      1.51957331	      8.11984334	      8.07848877	     17.45116891	     -0.47667768	     -1.78985654	    -25.06152407	      0.00000000	      0.00000000	      0.00000000	      0.00000000	      0.00000000	      0.00000000	      0.00000000	      0.00000000	      0.00000000	      0.00000000	      0.00000000	      0.00000000	      7.87259979	    -14.82669095	     -6.22268716	      1.40401614
      0.31250000	     -4.16126669	     -1.67767925	     -2.78839703	     -0.38573776	      1.04070014	      0.35339738	     21.87647011	     -0.66436512	     -4.38965046	    -68.95823309	      2.31844821	      8.07212088	      8.09622683	     16.86661246	     -0.44838653	     -1.74767956	    -24.81749089	      0.00000000	      0.00000000	      0.00000000	      0.00000000	      0.00000000	      0.00000000	      0.00000000	      0.00000000	      0.00000000	      0.00000000	      0.00000000	      0.00000000	      7.97106222	    -14.87994120	     -6.14562563	      1.25208113
      0.31666667	     -4.03002740	     -1.70203068	     -2.71246928	     -0.38042783	      1.04155591	      0.35325413	     22.26243565	     -0.61460173	     -4.45879722	    -68.70207282	      3.13399987	      8.05478844	      8.10789309	     16.28055528	     -0.43354367	     -1.71611330	    -24.59112313	      0.00000000	      0.00000000	      0.00000000	      0.00000000	      0.00000000	      0.00000000	      0.00000000	      0.00000000	      0.00000000	      0.00000000	      0.00000000	      0.00000000	      8.08970492	    -14.98406340	     -6.08170842	      1.07655926
      0.32083333	     -3.87797595	     -1.73894047	     -2.63831433	     -0.37514332	      1.04244078	      0.35309000	     22.60895477	     -0.56845877	     -4.54009306	    -68.38567383	      3.90888481	      8.09629553	      8.08511880	     15.67593219	     -0.43113064	     -1.68528701	    -24.36697977	      0.00000000	      0.00000000	      0.00000000	      0.00000000	      0.00000000	      0.00000000	      0.00000000	      0.00000000	      0.00000000	      0.00000000	      0.00000000	      0.00000000	      8.21016467	    -15.13634957	     -6.00413350	      0.88140392
      0.32500000	     -3.59717528	     -1.75254477	     -2.54604275	     -0.36988310	      1.04350727	      0.35285723	     22.80778580	     -0.60417730	     -4.68020211	    -68.02906695	      4.67403119	      8.32854605	      7.87079873	     14.90866993	     -0.39196633	     -1.64334259	    -24.09636669	      0.00000000	      0.00000000	      0.00000000	      0.00000000	      0.00000000	      0.00000000	      0.00000000	      0.00000000	      0.00000000	      0.00000000	      0.00000000	      0.00000000	      8.30001677	    -15.46719050	     -5.94991550	      0.61770599
      0.32916667	     -3.60077684	     -1.76888633	     -2.48083231	     -0.36470910	      1.04406462	      0.35272162	     23.31682635	     -0.56661428	     -4.75097711	    -67.58797240	      4.97298471	      8.26877161	      7.88192869	     14.52440722	     -0.37813668	     -1.60863753	    -23.95703756	      0.00000000	      0.00000000	      0.00000000	      0.00000000	      0.00000000	      0.00000000	      0.00000000	      0.00000000	      0.00000000	      0.00000000	      0.00000000	      0.00000000	      8.44934696	    -15.52579070	     -5.91099009	      0.59424758
      0.33333333	     -3.49107006	     -1.86478565	     -2.42525889	     -0.35942343	      1.04488761	      0.35262225	     23.64227198	     -0.40456472	     -4.80815157	    -67.09166359	      5.90332472	      8.15412814	      7.91116030	     13.96333807	     -0.45259809	     -1.58423794	    -23.72985305	      0.00000000	      0.00000000	      0.00000000	      0.00000000	      0.00000000	      0.00000000	      0.00000000	      0.00000000	      0.00000000	      0.00000000	      0.00000000	      0.00000000	      8.49738742	    -15.46512001	     -5.71668876	      0.43853366
      0.33750000	     -3.42870297	     -1.92639514	     -2.36980169	     -0.35421867	      1.04555985	      0.35248954	     24.02863537	     -0.31577442	     -4.88543454	    -66.54587733	      6.46106017	      8.11593596	      7.90362465	     13.47210759	     -0.48796171	     -1.54545658	    -23.53211197	      0.00000000	      0.00000000	      0.00000000	      0.00000000	      0.00000000	      0.00000000	      0.00000000	      0.00000000	      0.00000000	      0.00000000	      0.00000000	      0.00000000	      8.59228934	    -15.51254373	     -5.61164558	      0.31757000
      0.34166667	     -3.42537345	     -1.93605188	     -2.31361671	     -0.34920643	      1.04600773	      0.35236912	     24.52580653	     -0.29263714	     -4.95023310	    -66.01081442	      6.70646884	      8.08897579	      7.90449164	     13.11131061	     -0.47409810	     -1.52750991	    -23.43027334	      0.00000000	      0.00000000	      0.00000000	      0.00000000	      0.00000000	      0.00000000	      0.00000000	      0.00000000	      0.00000000	      0.00000000	      0.00000000	      0.00000000	      8.74336069	    -15.61293223	     -5.58702396	      0.27825458
      0.34583333	     -3.29545030	     -2.05257142	     -2.26283699	     -0.34394304	      1.04683510	      0.35228392	     24.76270491	     -0.12288863	     -5.03477644	    -65.32479572	      7.47917838	      8.05062259	      7.89204511	     12.51646702	     -0.57355056	     -1.49587329	    -23.18195124	      0.00000000	      0.00000000	      0.00000000	      0.00000000	      0.00000000	      0.00000000	      0.00000000	      0.00000000	      0.00000000	      0.00000000	      0.00000000	      0.00000000	      8.79600166	    -15.61668196	     -5.36593366	      0.07521007
      0.35000000	     -2.97565915	     -2.12825401	     -2.15767402	     -0.33882720	      1.04789224	      0.35204611	     24.78534313	     -0.08474954	     -5.20422280	    -64.57374916	      7.91816179	      8.14486102	      7.55289878	     11.73683092	     -0.60578516	     -1.43039277	    -22.94124808	      0.00000000	      0.00000000	      0.00000000	      0.00000000	      0.00000000	      0.00000000	      0.00000000	      0.00000000	      0.00000000	      0.00000000	      0.00000000	      0.00000000	      8.87119302	    -16.04728618	     -5.22720418	     -0.16068811
      0.35416667	     -2.97278672	     -2.19330754	     -2.12852369	     -0.33374262	      1.04836894	      0.35203685	     25.19493521	      0.04591251	     -5.23874019	    -63.85926559	      8.35983568	      8.09860929	      7.53324496	     11.33783084	     -0.66466439	     -1.42646431	    -22.77667266	      0.00000000	      0.00000000	      0.00000000	      0.00000000	      0.00000000	      0.00000000	      0.00000000	      0.00000000	      0.00000000	      0.00000000	      0.00000000	      0.00000000	      8.97275675	    -16.02904702	     -5.12056670	     -0.22735694
      0.35833333	     -2.96168158	     -2.25077769	     -2.08062673	     -0.32865359	      1.04882923	      0.35198775	     25.56984833	      0.15434100	     -5.29471900	    -63.08539107	      8.72404275	      8.04295873	      7.50272306	     10.93202790	     -0.70890678	     -1.40026245	    -22.61252556	      0.00000000	      0.00000000	      0.00000000	      0.00000000	      0.00000000	      0.00000000	      0.00000000	      0.00000000	      0.00000000	      0.00000000	      0.00000000	      0.00000000	      9.06463950	    -16.03229323	     -5.02918750	     -0.30451476
      0.36250000	     -2.98423260	     -2.22514031	     -2.02684086	     -0.32376236	      1.04904930	      0.35191976	     26.05292273	      0.15390719	     -5.32934790	    -62.37857322	      8.91566339	      8.01243808	      7.49201550	     10.62159704	     -0.66434535	     -1.39549102	    -22.53328320	      0.00000000	      0.00000000	      0.00000000	      0.00000000	      0.00000000	      0.00000000	      0.00000000	      0.00000000	      0.00000000	      0.00000000	      0.00000000	      0.00000000	      9.21881364	    -16.14007328	     -5.00746850	     -0.33157254
      0.36666667	     -2.87771374	     -2.41068769	     -1.97746749	     -0.31849107	      1.04981895	      0.35186689	     26.18086145	      0.42278563	     -5.40841764	    -61.37017262	      9.37866603	      7.87906566	      7.39375819	     10.04306962	     -0.84815104	     -1.35734736	    -22.26797366	      0.00000000	      0.00000000	      0.00000000	      0.00000000	      0.00000000	      0.00000000	      0.00000000	      0.00000000	      0.00000000	      0.00000000	      0.00000000	      0.00000000	      9.26544243	    -16.12945408	     -4.72564974	     -0.52079315
      0.37083333	     -2.89551266	     -2.36947420	     -1.92467361	     -0.31365362	      1.04996636	      0.35185458	     26.64050868	      0.40967839	     -5.43312759	    -60.60865167	      9.54901905	      7.84360774	      7.37442238	      9.74045599	     -0.79013239	     -1.34042425	    -22.20213163	      0.00000000	      0.00000000	      0.00000000	      0.00000000	      0.00000000	      0.00000000	      0.00000000	      0.00000000	      0.00000000	      0.00000000	      0.00000000	      0.00000000	      9.40644237	    -16.24410591	     -4.73389076	     -0.54606182
      0.37500000	     -2.77478821	     -2.54330154	     -1.86353752	     -0.30837281	      1.05072270	      0.35183374	     26.69557882	      0.67731318	     -5.50604547	    -59.48070800	      9.90047374	      7.64429325	      7.23418577	      9.13559513	     -0.96179420	     -1.29089060	    -21.90392978	      0.00000000	      0.00000000	      0.00000000	      0.00000000	      0.00000000	      0.00000000	      0.00000000	      0.00000000	      0.00000000	      0.00000000	      0.00000000	      0.00000000	      9.43105044	    -16.24916153	     -4.50068999	     -0.72345592
